<?xml version="1.0" encoding="UTF-8" standalone="no"?>
<!DOCTYPE svg PUBLIC "-//W3C//DTD SVG 20010904//EN"
              "http://www.w3.org/TR/2001/REC-SVG-20010904/DTD/svg10.dtd">

<svg xmlns="http://www.w3.org/2000/svg"
     width="6.66667in" height="6.66667in"
     viewBox="0 0 2000 2000">
  <path id="Sélection"
        fill="none" stroke="black" stroke-width="1"
        d="M 795.00,333.00
           C 795.00,333.00 798.72,365.00 798.72,365.00
             798.72,365.00 805.84,425.00 805.84,425.00
             805.84,425.00 828.16,615.00 828.16,615.00
             828.16,615.00 832.84,653.00 832.84,653.00
             832.84,653.00 860.16,885.00 860.16,885.00
             860.16,885.00 866.84,940.00 866.84,940.00
             866.84,940.00 884.84,1092.00 884.84,1092.00
             884.84,1092.00 893.84,1168.00 893.84,1168.00
             893.84,1168.00 903.00,1245.00 903.00,1245.00
             903.00,1245.00 933.00,1243.09 933.00,1243.09
             933.00,1243.09 974.00,1240.91 974.00,1240.91
             974.00,1240.91 999.00,1239.00 999.00,1239.00
             999.00,1239.00 1000.91,1215.00 1000.91,1215.00
             1000.91,1215.00 1004.91,1158.00 1004.91,1158.00
             1004.91,1158.00 1013.09,1035.00 1013.09,1035.00
             1013.09,1035.00 1015.91,1000.00 1015.91,1000.00
             1015.91,1000.00 1045.09,575.00 1045.09,575.00
             1045.09,575.00 1047.91,540.00 1047.91,540.00
             1047.91,540.00 1056.09,417.00 1056.09,417.00
             1056.09,417.00 1060.09,360.00 1060.09,360.00
             1060.09,360.00 1062.00,333.00 1062.00,333.00
             1062.00,333.00 795.00,333.00 795.00,333.00 Z
           M 885.00,1289.96
           C 885.00,1289.96 907.58,1372.00 907.58,1372.00
             907.58,1372.00 912.58,1390.00 912.58,1390.00
             912.58,1390.00 915.70,1397.01 915.70,1397.01
             915.70,1397.01 927.00,1398.00 927.00,1398.00
             927.00,1398.00 942.00,1397.00 942.00,1397.00
             942.00,1397.00 988.00,1396.00 988.00,1396.00
             988.00,1396.00 1008.00,1395.00 1008.00,1395.00
             1008.00,1395.00 1009.00,1381.00 1009.00,1381.00
             1009.00,1381.00 1010.00,1358.00 1010.00,1358.00
             1010.00,1358.00 1011.00,1340.00 1011.00,1340.00
             1011.00,1340.00 1012.00,1325.00 1012.00,1325.00
             1012.00,1325.00 1014.00,1287.00 1014.00,1287.00
             1014.00,1287.00 997.00,1287.00 997.00,1287.00
             997.00,1287.00 982.00,1288.00 982.00,1288.00
             982.00,1288.00 912.00,1289.00 912.00,1289.00
             912.00,1289.00 900.00,1289.96 900.00,1289.96
             900.00,1289.96 885.00,1289.96 885.00,1289.96 Z" />
</svg>
