<?xml version="1.0" encoding="UTF-8" standalone="no"?>
<!DOCTYPE svg PUBLIC "-//W3C//DTD SVG 20010904//EN"
              "http://www.w3.org/TR/2001/REC-SVG-20010904/DTD/svg10.dtd">

<svg xmlns="http://www.w3.org/2000/svg"
     width="6.66667in" height="6.66667in"
     viewBox="0 0 2000 2000">
  <path id="Sélection"
        fill="rgba(#E9E9E9, 0.5)" stroke="black" stroke-width="1"
        d="M 818.00,270.00
           C 810.73,274.30 798.55,276.29 790.00,278.88
             790.00,278.88 737.83,296.02 737.83,296.02
             737.83,296.02 705.00,309.56 705.00,309.56
             705.00,309.56 692.01,314.87 692.01,314.87
             692.01,314.87 638.00,341.99 638.00,341.99
             624.50,349.42 596.69,365.16 585.00,374.00
             585.00,374.00 604.47,404.72 604.47,404.72
             604.47,404.72 647.21,471.00 647.21,471.00
             647.21,471.00 691.73,540.00 691.73,540.00
             691.73,540.00 716.00,577.00 716.00,577.00
             707.84,581.01 702.35,587.65 696.00,594.00
             696.00,594.00 668.00,621.99 668.00,621.99
             668.00,621.99 649.00,640.00 649.00,640.00
             649.00,640.00 621.00,667.90 621.00,667.90
             621.00,667.90 613.00,674.21 613.00,674.21
             613.00,674.21 592.00,695.00 592.00,695.00
             586.56,700.44 578.27,708.03 574.00,714.00
             574.00,714.00 519.57,678.47 519.57,678.47
             519.57,678.47 512.04,673.06 512.04,673.06
             512.04,673.06 438.00,624.71 438.00,624.71
             438.00,624.71 413.04,608.06 413.04,608.06
             413.04,608.06 398.00,598.54 398.00,598.54
             398.00,598.54 374.00,584.00 374.00,584.00
             374.00,584.00 346.17,630.00 346.17,630.00
             329.52,659.30 314.57,690.52 302.25,721.91
             302.25,721.91 282.43,778.00 282.43,778.00
             280.03,786.39 273.44,812.17 270.00,818.00
             271.73,820.80 269.63,824.96 268.87,828.00
             268.87,828.00 264.00,851.00 264.00,851.00
             264.00,851.00 328.00,864.58 328.00,864.58
             328.00,864.58 434.00,887.42 434.00,887.42
             434.00,887.42 472.00,895.65 472.00,895.65
             472.00,895.65 500.00,901.00 500.00,901.00
             500.00,901.00 499.00,923.00 499.00,923.00
             499.00,923.00 499.00,960.00 499.00,960.00
             499.00,960.00 498.00,975.00 498.00,975.00
             498.00,975.00 498.00,1024.00 498.00,1024.00
             498.00,1024.00 497.00,1041.00 497.00,1041.00
             497.00,1041.00 497.00,1100.00 497.00,1100.00
             497.00,1100.00 461.00,1106.80 461.00,1106.80
             461.00,1106.80 389.00,1121.79 389.00,1121.79
             389.00,1121.79 310.00,1138.20 310.00,1138.20
             310.00,1138.20 264.00,1148.00 264.00,1148.00
             264.00,1148.00 268.87,1172.00 268.87,1172.00
             269.60,1174.91 271.78,1179.40 270.00,1182.00
             274.30,1189.27 276.29,1201.45 278.88,1210.00
             278.88,1210.00 296.02,1262.17 296.02,1262.17
             296.02,1262.17 309.56,1295.00 309.56,1295.00
             309.56,1295.00 314.87,1307.99 314.87,1307.99
             314.87,1307.99 341.99,1362.00 341.99,1362.00
             349.42,1375.50 365.16,1403.31 374.00,1415.00
             374.00,1415.00 404.72,1395.53 404.72,1395.53
             404.72,1395.53 471.00,1352.79 471.00,1352.79
             471.00,1352.79 540.00,1308.27 540.00,1308.27
             540.00,1308.27 577.00,1284.00 577.00,1284.00
             581.01,1292.16 587.65,1297.65 594.00,1304.00
             594.00,1304.00 621.99,1332.00 621.99,1332.00
             621.99,1332.00 640.00,1351.00 640.00,1351.00
             640.00,1351.00 667.90,1379.00 667.90,1379.00
             667.90,1379.00 674.21,1387.00 674.21,1387.00
             674.21,1387.00 695.00,1408.00 695.00,1408.00
             700.44,1413.44 708.03,1421.73 714.00,1426.00
             714.00,1426.00 678.47,1480.43 678.47,1480.43
             678.47,1480.43 673.06,1487.96 673.06,1487.96
             673.06,1487.96 624.71,1562.00 624.71,1562.00
             624.71,1562.00 608.06,1586.96 608.06,1586.96
             608.06,1586.96 598.54,1602.00 598.54,1602.00
             598.54,1602.00 584.00,1626.00 584.00,1626.00
             584.00,1626.00 630.00,1653.83 630.00,1653.83
             659.30,1670.48 690.52,1685.43 721.91,1697.75
             721.91,1697.75 778.00,1717.57 778.00,1717.57
             786.39,1719.97 812.17,1726.56 818.00,1730.19
             820.44,1728.49 822.32,1729.68 825.00,1730.19
             825.00,1730.19 841.00,1733.80 841.00,1733.80
             843.73,1734.56 847.96,1736.16 850.02,1733.80
             851.49,1731.76 853.40,1720.92 854.00,1718.00
             854.00,1718.00 861.80,1682.00 861.80,1682.00
             861.80,1682.00 888.35,1559.00 888.35,1559.00
             888.35,1559.00 896.79,1520.00 896.79,1520.00
             897.49,1516.69 899.67,1504.45 901.16,1502.31
             903.12,1499.51 906.99,1500.01 910.00,1500.00
             910.00,1500.00 928.00,1500.00 928.00,1500.00
             928.00,1500.00 943.00,1501.00 943.00,1501.00
             943.00,1501.00 992.00,1501.00 992.00,1501.00
             992.00,1501.00 1009.00,1502.00 1009.00,1502.00
             1009.00,1502.00 1056.00,1502.00 1056.00,1502.00
             1056.00,1502.00 1071.00,1503.00 1071.00,1503.00
             1071.00,1503.00 1091.00,1503.00 1091.00,1503.00
             1094.01,1503.01 1097.88,1502.51 1099.84,1505.31
             1101.26,1507.35 1103.16,1518.83 1103.80,1522.00
             1103.80,1522.00 1111.20,1557.00 1111.20,1557.00
             1111.20,1557.00 1136.00,1677.00 1136.00,1677.00
             1136.00,1677.00 1142.42,1708.00 1142.42,1708.00
             1142.42,1708.00 1148.00,1736.00 1148.00,1736.00
             1148.00,1736.00 1172.00,1731.13 1172.00,1731.13
             1174.91,1730.40 1179.40,1728.22 1182.00,1730.00
             1189.27,1725.70 1201.45,1723.71 1210.00,1721.12
             1210.00,1721.12 1262.17,1703.98 1262.17,1703.98
             1262.17,1703.98 1295.00,1690.44 1295.00,1690.44
             1295.00,1690.44 1307.99,1685.13 1307.99,1685.13
             1307.99,1685.13 1362.00,1658.01 1362.00,1658.01
             1375.50,1650.58 1403.31,1634.84 1415.00,1626.00
             1415.00,1626.00 1395.53,1595.28 1395.53,1595.28
             1395.53,1595.28 1352.79,1529.00 1352.79,1529.00
             1352.79,1529.00 1308.27,1460.00 1308.27,1460.00
             1308.27,1460.00 1284.00,1423.00 1284.00,1423.00
             1292.16,1418.99 1297.65,1412.35 1304.00,1406.00
             1304.00,1406.00 1332.00,1378.01 1332.00,1378.01
             1332.00,1378.01 1351.00,1360.00 1351.00,1360.00
             1351.00,1360.00 1379.00,1332.10 1379.00,1332.10
             1379.00,1332.10 1387.00,1325.79 1387.00,1325.79
             1387.00,1325.79 1408.00,1305.00 1408.00,1305.00
             1413.44,1299.56 1421.73,1291.97 1426.00,1286.00
             1426.00,1286.00 1481.28,1322.10 1481.28,1322.10
             1481.28,1322.10 1562.00,1375.29 1562.00,1375.29
             1562.00,1375.29 1586.96,1391.95 1586.96,1391.95
             1586.96,1391.95 1602.00,1401.46 1602.00,1401.46
             1602.00,1401.46 1626.00,1416.00 1626.00,1416.00
             1626.00,1416.00 1653.83,1370.00 1653.83,1370.00
             1670.48,1340.70 1685.43,1309.48 1697.75,1278.09
             1697.75,1278.09 1717.57,1222.00 1717.57,1222.00
             1719.97,1213.61 1726.56,1187.83 1730.19,1182.00
             1728.49,1179.56 1729.68,1177.68 1730.19,1175.00
             1730.19,1175.00 1733.80,1159.00 1733.80,1159.00
             1734.56,1156.27 1736.16,1152.04 1733.80,1149.98
             1732.15,1148.83 1722.46,1146.97 1720.00,1146.42
             1720.00,1146.42 1686.00,1139.12 1686.00,1139.12
             1686.00,1139.12 1560.00,1111.88 1560.00,1111.88
             1560.00,1111.88 1520.00,1103.21 1520.00,1103.21
             1516.69,1102.51 1504.45,1100.33 1502.31,1098.84
             1499.51,1096.88 1500.01,1093.01 1500.00,1090.00
             1500.00,1090.00 1500.00,1070.00 1500.00,1070.00
             1500.00,1070.00 1501.00,1053.00 1501.00,1053.00
             1501.00,1053.00 1501.00,1004.00 1501.00,1004.00
             1501.00,1004.00 1502.00,987.00 1502.00,987.00
             1502.00,987.00 1502.00,938.00 1502.00,938.00
             1502.00,938.00 1503.00,924.00 1503.00,924.00
             1503.00,924.00 1503.00,908.00 1503.00,908.00
             1503.07,898.39 1505.03,899.87 1517.00,897.12
             1517.00,897.12 1559.00,888.40 1559.00,888.40
             1559.00,888.40 1673.00,864.79 1673.00,864.79
             1673.00,864.79 1736.00,852.00 1736.00,852.00
             1736.00,852.00 1731.13,828.00 1731.13,828.00
             1730.40,825.09 1728.22,820.60 1730.00,818.00
             1725.70,810.73 1723.71,798.55 1721.12,790.00
             1721.12,790.00 1703.98,737.83 1703.98,737.83
             1703.98,737.83 1690.44,705.00 1690.44,705.00
             1690.44,705.00 1685.13,692.01 1685.13,692.01
             1685.13,692.01 1658.01,638.00 1658.01,638.00
             1650.58,624.50 1634.84,596.69 1626.00,585.00
             1626.00,585.00 1595.28,604.47 1595.28,604.47
             1595.28,604.47 1529.00,647.21 1529.00,647.21
             1529.00,647.21 1460.00,691.73 1460.00,691.73
             1460.00,691.73 1423.00,716.00 1423.00,716.00
             1418.99,707.84 1412.35,702.35 1406.00,696.00
             1406.00,696.00 1378.01,668.00 1378.01,668.00
             1378.01,668.00 1360.00,649.00 1360.00,649.00
             1360.00,649.00 1332.10,621.00 1332.10,621.00
             1332.10,621.00 1325.79,613.00 1325.79,613.00
             1325.79,613.00 1305.00,592.00 1305.00,592.00
             1299.56,586.56 1291.97,578.27 1286.00,574.00
             1286.00,574.00 1322.10,518.72 1322.10,518.72
             1322.10,518.72 1375.29,438.00 1375.29,438.00
             1375.29,438.00 1391.95,413.04 1391.95,413.04
             1391.95,413.04 1401.46,398.00 1401.46,398.00
             1401.46,398.00 1416.00,374.00 1416.00,374.00
             1416.00,374.00 1370.00,346.17 1370.00,346.17
             1340.70,329.52 1309.48,314.57 1278.09,302.25
             1278.09,302.25 1222.00,282.43 1222.00,282.43
             1213.61,280.03 1187.83,273.44 1182.00,270.00
             1179.39,271.61 1175.87,269.85 1173.00,269.13
             1173.00,269.13 1151.00,264.00 1151.00,264.00
             1148.05,270.08 1147.61,275.52 1146.12,282.00
             1146.12,282.00 1138.35,318.00 1138.35,318.00
             1138.35,318.00 1110.88,445.00 1110.88,445.00
             1110.88,445.00 1102.88,482.00 1102.88,482.00
             1102.12,485.32 1100.47,495.48 1098.86,497.69
             1096.84,500.48 1093.06,499.99 1090.00,500.00
             1090.00,500.00 1065.00,500.00 1065.00,500.00
             1065.00,500.00 1049.00,499.00 1049.00,499.00
             1049.00,499.00 999.00,499.00 999.00,499.00
             999.00,499.00 982.00,498.00 982.00,498.00
             982.00,498.00 935.00,498.00 935.00,498.00
             935.00,498.00 920.00,497.00 920.00,497.00
             920.00,497.00 907.00,497.00 907.00,497.00
             898.85,496.84 899.32,493.93 897.21,484.00
             897.21,484.00 888.79,443.00 888.79,443.00
             888.79,443.00 866.58,336.00 866.58,336.00
             866.58,336.00 856.80,289.00 856.80,289.00
             856.80,289.00 852.00,264.00 852.00,264.00
             852.00,264.00 828.00,268.87 828.00,268.87
             825.09,269.60 820.60,271.78 818.00,270.00 Z
           M 1120.00,1198.00
           C 1113.08,1196.32 1102.41,1197.01 1095.00,1197.00
             1095.00,1197.00 1079.00,1196.00 1079.00,1196.00
             1079.00,1196.00 1060.00,1196.00 1060.00,1196.00
             1060.00,1196.00 1043.00,1195.00 1043.00,1195.00
             1043.00,1195.00 993.00,1194.00 993.00,1194.00
             993.00,1194.00 978.00,1193.00 978.00,1193.00
             978.00,1193.00 960.00,1193.00 960.00,1193.00
             960.00,1193.00 944.00,1192.00 944.00,1192.00
             944.00,1192.00 925.00,1192.00 925.00,1192.00
             925.00,1192.00 909.00,1191.00 909.00,1191.00
             909.00,1191.00 892.00,1191.00 892.00,1191.00
             892.00,1191.00 877.00,1190.00 877.00,1190.00
             877.00,1190.00 858.00,1190.00 858.00,1190.00
             855.87,1190.00 852.42,1190.25 850.63,1189.01
             848.94,1187.82 846.19,1182.09 845.00,1180.00
             845.00,1180.00 831.75,1156.00 831.75,1156.00
             831.75,1156.00 806.31,1110.00 806.31,1110.00
             806.31,1110.00 771.14,1046.00 771.14,1046.00
             771.14,1046.00 750.75,1009.00 750.75,1009.00
             748.95,1005.57 743.74,997.42 743.66,994.00
             743.59,991.04 748.22,983.06 749.75,980.00
             749.75,980.00 766.75,946.00 766.75,946.00
             766.75,946.00 801.74,878.00 801.74,878.00
             801.74,878.00 828.69,825.00 828.69,825.00
             828.69,825.00 845.25,792.00 845.25,792.00
             852.24,778.02 850.82,778.02 860.00,778.00
             860.00,778.00 1106.00,778.00 1106.00,778.00
             1108.13,778.00 1111.58,777.75 1113.37,778.99
             1115.20,780.28 1117.20,784.90 1118.25,787.00
             1118.25,787.00 1128.25,807.00 1128.25,807.00
             1128.25,807.00 1177.25,903.00 1177.25,903.00
             1177.25,903.00 1212.25,972.00 1212.25,972.00
             1212.25,972.00 1222.11,992.00 1222.11,992.00
             1222.77,993.93 1222.60,995.17 1222.11,997.00
             1222.11,997.00 1213.25,1014.00 1213.25,1014.00
             1213.25,1014.00 1192.26,1055.00 1192.26,1055.00
             1192.26,1055.00 1145.74,1147.00 1145.74,1147.00
             1145.74,1147.00 1120.00,1198.00 1120.00,1198.00 Z" />
</svg>
